# xmcd CD database file
#
# Track frame offsets:
#	151
#	14395
#	29456
#	40441
#	52261
#	65466
#	78318
#	92784
#	104766
#	117413
#	128372
#	140516
#	153927
#	166698
#	178986
#
# Disc length: 2523 seconds
#
# Revision: 1
# Processed by: cddbd v1.5.2PL0 Copyright (c) Steve Scherf et al.
# Submitted via: CDex 1.70beta2
#
DISCID=cd09d90f
DTITLE=jazz - ジャズピアノ名演集
DYEAR=1900
DGENRE=Jazz
TTITLE0=By The Light Of The Silvery Moon
TTITLE1=Basie`s Basement
TTITLE2=Ornithology
TTITLE3=The Man I Love
TTITLE4=Pick Yourself Up
TTITLE5=Someone To Watch Over Me
TTITLE6=Round Midnight
TTITLE7=Rose Room
TTITLE8=Sometimes I`m Happy
TTITLE9=Teddy Wilson
TTITLE10=China Boy
TTITLE11=Straight No Chaser
TTITLE12=Taurus Mood
TTITLE13=Limehouse Blues
TTITLE14=How High The Moon
EXTD=
EXTT0=
EXTT1=
EXTT2=
EXTT3=
EXTT4=
EXTT5=
EXTT6=
EXTT7=
EXTT8=
EXTT9=
EXTT10=
EXTT11=
EXTT12=
EXTT13=
EXTT14=
PLAYORDER=
